<svg xmlns="http://www.w3.org/2000/svg" viewBox="0 0 285.6 325.9"><defs><style>.cls-1{fill:#fff;}.cls-2{fill:#293549;}.cls-3{fill:#3bab5e;}.cls-4{fill:#f7f8f9;}.cls-5{fill:#424143;opacity:0.4;}.cls-5,.cls-6{isolation:isolate;}.cls-6{fill:#221f1f;opacity:0.1;}</style></defs><title>Asset 11</title><g id="Layer_2" data-name="Layer 2"><g id="Pagina_Inicial_Movil" data-name="Pagina Inicial Movil"><path class="cls-1" d="M0,87.5A13.8,13.8,0,0,1,6.2,76.8L136.6,1.5a13.8,13.8,0,0,1,12.4,0L279.4,76.8a13.8,13.8,0,0,1,6.2,10.8V238.2a13.8,13.8,0,0,1-6.2,10.8L149,324.2a13.8,13.8,0,0,1-12.4,0L6.2,248.9A13.8,13.8,0,0,1,0,238.2V87.5Z"/><path class="cls-2" d="M68.1,54.6a8.8,8.8,0,0,1,8.8-8.8H209a8.8,8.8,0,0,1,8.8,8.8V271.2A8.8,8.8,0,0,1,209,280H76.9a8.8,8.8,0,0,1-8.8-8.8Z"/><rect class="cls-3" x="76.9" y="76.5" width="132" height="165.45"/><path class="cls-4" d="M148.3,60.1H137.4a.4.4,0,0,1-.5-.5.5.5,0,0,1,.5-.5h10.9a.5.5,0,1,1,0,1Z"/><path class="cls-4" d="M151.9,62.6H134a.5.5,0,0,1-.5-.5.4.4,0,0,1,.5-.5h17.9a.5.5,0,0,1,.5.5A.4.4,0,0,1,151.9,62.6Z"/><path class="cls-4" d="M148.3,64.9H137.4a.5.5,0,1,1,0-1h10.9a.5.5,0,1,1,0,1Z"/><path class="cls-4" d="M143,272.1a9.5,9.5,0,0,1-9.5-9.6A9.4,9.4,0,0,1,143,253a9.5,9.5,0,0,1,9.5,9.5A9.6,9.6,0,0,1,143,272.1Zm0-18.3a8.6,8.6,0,1,0,8.6,8.6A8.7,8.7,0,0,0,143,253.8Z"/><rect class="cls-4" x="87.9" y="85.3" width="110" height="31.13"/><rect class="cls-5" x="126.5" y="126.7" width="71.6" height="31.13"/><rect class="cls-5" x="87.9" y="126.3" width="31.5" height="31.46"/><rect class="cls-5" x="126.5" y="165.5" width="71.6" height="31.13"/><rect class="cls-5" x="87.9" y="165.1" width="31.5" height="31.46"/><rect class="cls-5" x="126.5" y="204.1" width="71.6" height="31.13"/><rect class="cls-5" x="87.9" y="203.9" width="31.5" height="31.46"/><path class="cls-6" d="M279.4,76.8,148.8,1.5A11.6,11.6,0,0,0,143,0V325.9a11.6,11.6,0,0,0,5.9-1.5l130.4-75.3a13.8,13.8,0,0,0,6.2-10.8V87.5A13.2,13.2,0,0,0,279.4,76.8Z"/></g></g></svg>