<svg xmlns="http://www.w3.org/2000/svg" viewBox="0 0 81 81"><defs><style>.cls-1{fill:#71737f;}.cls-2{fill:#edeff7;}</style></defs><title>Asset 14</title><g id="Layer_2" data-name="Layer 2"><g id="Pagina_Inicial_Movil" data-name="Pagina Inicial Movil"><circle class="cls-1" cx="40.5" cy="40.5" r="40.5"/><g id="_fa-pencil" data-name=" fa-pencil"><path class="cls-2" d="M52.3,35.3,31.8,55.9H21.5V45.6L42.1,25ZM32.7,50.5l-5.8-5.8-2.2,2.2v2.6h3.2v3.2h2.6ZM42.9,29.2l-.4.2L29.1,42.8a.6.6,0,0,0-.2.4.5.5,0,0,0,.5.5l.4-.2L43.2,30.2a.6.6,0,0,0,.2-.4A.5.5,0,0,0,42.9,29.2Zm15.2.4-4.1,4.1L43.7,23.5l4.1-4.1a3.1,3.1,0,0,1,2.2-.9,3.2,3.2,0,0,1,2.2.9L58,25.2a3.3,3.3,0,0,1,.9,2.2A3.2,3.2,0,0,1,58,29.6Z"/></g></g></g></svg>