<svg xmlns="http://www.w3.org/2000/svg" viewBox="0 0 81 81"><defs><style>.cls-1{fill:#71737f;}.cls-2{fill:#edeff7;}</style></defs><title>Asset 16</title><g id="Layer_2" data-name="Layer 2"><g id="Pagina_Inicial_Movil" data-name="Pagina Inicial Movil"><circle class="cls-1" cx="40.5" cy="40.5" r="40.5"/><g id="fa-check-square-o"><path class="cls-2" d="M54.7,49.4a7.1,7.1,0,0,1-7.1,7.1H27.1A7.1,7.1,0,0,1,20,49.4V28.8a7.1,7.1,0,0,1,7.1-7.1H47.6a6.9,6.9,0,0,1,2.9.6.8.8,0,0,1,.4.6.8.8,0,0,1-.2.7l-1.2,1.2-.6.2H27.1a4,4,0,0,0-4,4V49.4a4,4,0,0,0,4,4H47.6a4,4,0,0,0,4-4V43.1a.8.8,0,0,1,.2-.5L53.4,41l.6-.2h.3a.8.8,0,0,1,.5.7Zm-14.4.2a2,2,0,0,1-2.8,0L26.9,38.9a2,2,0,0,1,0-2.8l2.7-2.7a2,2,0,0,1,2.8,0l6.5,6.5,16-16a2,2,0,0,1,2.8,0l2.7,2.7a2,2,0,0,1,0,2.8Z"/></g></g></g></svg>