<svg xmlns="http://www.w3.org/2000/svg" viewBox="0 0 81 81"><defs><style>.cls-1{fill:#71737f;}.cls-2{fill:#edeff7;}</style></defs><title>Asset 17</title><g id="Layer_2" data-name="Layer 2"><g id="Pagina_Inicial_Movil" data-name="Pagina Inicial Movil"><circle class="cls-1" cx="40.5" cy="40.5" r="40.5"/><g id="fa-cogs"><path class="cls-2" d="M48.4,41.5a.8.8,0,0,1-.6.7l-3.8.6a11.2,11.2,0,0,1-.8,1.9c.7,1,1.4,1.9,2.2,2.8a.9.9,0,0,1,.2.5.6.6,0,0,1-.2.5c-.5.7-3.3,3.7-4,3.7l-.5-.2-2.8-2.2-1.9.8a24.7,24.7,0,0,1-.6,3.8.8.8,0,0,1-.7.6H30.3a.8.8,0,0,1-.7-.6L29,50.6l-1.9-.8L24.2,52l-.5.2-.5-.2c-.6-.6-3.6-3.2-3.6-4a.8.8,0,0,1,.2-.5L22,44.8a13,13,0,0,1-.9-2l-3.8-.6a.7.7,0,0,1-.6-.7V36.9a.8.8,0,0,1,.6-.7l3.8-.6a11.2,11.2,0,0,1,.8-1.9c-.7-1-1.4-1.9-2.2-2.8a.9.9,0,0,1-.2-.5.8.8,0,0,1,.2-.5c.5-.7,3.3-3.7,4-3.7l.5.2,2.8,2.2,1.9-.8a24.8,24.8,0,0,1,.6-3.8.8.8,0,0,1,.7-.6h4.6a.8.8,0,0,1,.7.6l.6,3.8,1.9.8L41,26.4l.5-.2.5.2c.6.6,3.6,3.3,3.6,4a.8.8,0,0,1-.2.5l-2.1,2.8a15.8,15.8,0,0,1,.8,2l3.8.6a.8.8,0,0,1,.6.7ZM32.6,32.9a6.3,6.3,0,1,0,6.3,6.3A6.3,6.3,0,0,0,32.6,32.9Zm31.6-4.6c0,.4-3.2.7-3.7.8a6,6,0,0,1-.7,1.3A23,23,0,0,1,61,33.7v.2l-3.1,1.8c-.3,0-2.2-2.5-2.4-2.8H54c-.2.4-2.1,2.8-2.4,2.8l-3.1-1.8v-.2a24.1,24.1,0,0,1,1.3-3.4,6,6,0,0,1-.7-1.3c-.5,0-3.7-.4-3.7-.8V24.8c0-.4,3.2-.7,3.7-.8a6.7,6.7,0,0,1,.7-1.3,24.1,24.1,0,0,1-1.3-3.4v-.2l3.1-1.7c.3,0,2.2,2.4,2.4,2.8h1.5a22.2,22.2,0,0,1,2.3-2.8h.1l3.1,1.7v.2a23.1,23.1,0,0,1-1.3,3.4,6.7,6.7,0,0,1,.7,1.3c.5,0,3.7.4,3.7.8Zm0,25.3c0,.4-3.2.7-3.7.8a6,6,0,0,1-.7,1.3A23,23,0,0,1,61,59v.2L57.9,61c-.3,0-2.2-2.5-2.4-2.8H54c-.2.4-2.1,2.8-2.4,2.8l-3.1-1.8V59a24.1,24.1,0,0,1,1.3-3.4,6,6,0,0,1-.7-1.3c-.5,0-3.7-.4-3.7-.8V50.1c0-.4,3.2-.7,3.7-.8a6.7,6.7,0,0,1,.7-1.3,24.1,24.1,0,0,1-1.3-3.4v-.2l3.1-1.7c.3,0,2.2,2.4,2.4,2.8h1.5a22.2,22.2,0,0,1,2.3-2.8h.1l3.1,1.7v.2a23.1,23.1,0,0,1-1.3,3.4,6.7,6.7,0,0,1,.7,1.3c.5,0,3.7.4,3.7.8ZM54.7,23.4a3.2,3.2,0,1,0,3.2,3.2A3.2,3.2,0,0,0,54.7,23.4Zm0,25.3a3.2,3.2,0,1,0,3.2,3.2A3.2,3.2,0,0,0,54.7,48.7Z"/></g></g></g></svg>