<svg xmlns="http://www.w3.org/2000/svg" viewBox="0 0 81 81"><defs><style>.cls-1{fill:#71737f;}.cls-2{fill:#edeff7;}</style></defs><title>Asset 15</title><g id="Layer_2" data-name="Layer 2"><g id="Pagina_Inicial_Movil" data-name="Pagina Inicial Movil"><circle class="cls-1" cx="40.5" cy="40.5" r="40.5"/><g id="_fa-shopping-cart" data-name=" fa-shopping-cart"><path class="cls-2" d="M61,38.8a1.6,1.6,0,0,1-1.4,1.6l-25.8,3a8.2,8.2,0,0,1,.3,1.7,3.7,3.7,0,0,1-.6,1.6H56.3a1.6,1.6,0,0,1,0,3.2H31a1.6,1.6,0,0,1-1.6-1.6c0-.8,1.1-2.6,1.5-3.4L26.6,24.6h-5a1.6,1.6,0,1,1,0-3.2h6.3c1.7,0,1.7,2,2,3.2H59.5A1.6,1.6,0,0,1,61,26.1ZM32.6,56.2A3.2,3.2,0,1,1,35.8,53,3.2,3.2,0,0,1,32.6,56.2Zm22.1,0A3.2,3.2,0,1,1,57.9,53,3.2,3.2,0,0,1,54.7,56.2Z"/></g></g></g></svg>