<svg xmlns="http://www.w3.org/2000/svg" viewBox="0 0 81 81"><defs><style>.cls-1{fill:#71737f;}.cls-2{fill:#edeff7;}</style></defs><title>Asset 12</title><g id="Layer_2" data-name="Layer 2"><g id="Pagina_Inicial_Movil" data-name="Pagina Inicial Movil"><circle class="cls-1" cx="40.5" cy="40.5" r="40.5"/><g id="fa-mobile"><path class="cls-2" d="M52.7,56.1a4.1,4.1,0,0,1-4.1,4.1H32.4a4.1,4.1,0,0,1-4.1-4.1V23.6a4.1,4.1,0,0,1,4.1-4.1H48.6a4.1,4.1,0,0,1,4.1,4.1ZM49.7,28.6a1,1,0,0,0-1-1H32.4a1,1,0,0,0-1,1V51a1,1,0,0,0,1,1H48.6a1,1,0,0,0,1-1ZM43,23.6H38a.5.5,0,0,0,0,1H43a.5.5,0,0,0,0-1Zm-2.5,30A2.5,2.5,0,1,0,43,56.1,2.6,2.6,0,0,0,40.5,53.6Z"/></g></g></g></svg>