<svg xmlns="http://www.w3.org/2000/svg" viewBox="0 0 81 81"><defs><style>.cls-1{fill:#71737f;}.cls-2{fill:#edeff7;}</style></defs><title>Asset 13</title><g id="Layer_2" data-name="Layer 2"><g id="Pagina_Inicial_Movil" data-name="Pagina Inicial Movil"><circle class="cls-1" cx="40.5" cy="40.5" r="40.5"/><g id="_fa-laptop" data-name=" fa-laptop"><path class="cls-2" d="M64.2,50.8v2.4c0,1.3-1.8,2.4-4,2.4H20.7c-2.2,0-4-1.1-4-2.4V50.8H64.2ZM23.1,45.2V27.8a4,4,0,0,1,4-4H53.9a4,4,0,0,1,4,4V45.2a4,4,0,0,1-4,4H27.1A4,4,0,0,1,23.1,45.2Zm3.2,0a.8.8,0,0,0,.8.8H53.9a.8.8,0,0,0,.8-.8V27.8a.8.8,0,0,0-.8-.8H27.1a.8.8,0,0,0-.8.8Zm16.6,7.5a.4.4,0,0,0-.4-.4H38.5a.4.4,0,1,0,0,.8h3.9A.4.4,0,0,0,42.9,52.7Z"/></g></g></g></svg>