<svg xmlns="http://www.w3.org/2000/svg" viewBox="0 0 126.9 30.2"><defs><style>.cls-1{fill:#2967cc;}.cls-2{fill:#f4f9f9;}</style></defs><title>Asset 10</title><g id="Layer_2" data-name="Layer 2"><g id="Pagina_Inicial_Movil" data-name="Pagina Inicial Movil"><g id="Logo"><g id="xamagon"><path id="Logo-2" class="cls-1" d="M10,0A2.8,2.8,0,0,0,7.6,1.3L.3,14a3,3,0,0,0,0,2.6L7.6,29.1A2.6,2.6,0,0,0,10,30.2H24.7A2.6,2.6,0,0,0,27,29.1l7.3-12.6a2.5,2.5,0,0,0,0-2.6L27,1.3A2.8,2.8,0,0,0,24.7,0Zm.1,7.1h2.6l.3.3,4.3,7.6v.2h0l4.3-7.7.3-.3h2.5c.2.1.4.4.3.6l-4.2,7.5,4.2,7.4c.1.2-.1.4-.3.5H21.9l-.3-.2-4.3-7.5h-.1l-4.3,7.5-.3.2H10.1c-.2,0-.3,0-.4-.2a.4.4,0,0,1,.1-.3L14,15.4,9.8,7.8a.4.4,0,0,1,.2-.5h0Z"/></g></g><path class="cls-2" d="M56.3,15.9H51.5v5.7H57v3.6H47.5V4.1h9.1V7.7h-5v4.8h4.8Z"/><path class="cls-2" d="M59.7,25.2V4.1h3.7l3.2,8.2c.6,1.6,1.7,4.3,2.2,6.1H69c-.1-2.2-.4-5.9-.4-9.7V4.1h3.6v21H68.5l-3.2-8a60.2,60.2,0,0,1-2.1-6.3h-.1c.1,2.1.2,5.4.2,9.6v4.7Z"/><path class="cls-2" d="M85.9,24.8a8.3,8.3,0,0,1-3.2.5c-5.4,0-7.9-4.4-7.9-10.4,0-7.9,4.4-11,8.5-11a5.6,5.6,0,0,1,2.8.6l-.7,3.4a4.1,4.1,0,0,0-1.9-.4c-2.3,0-4.4,2-4.4,7.2s1.9,7,4.4,7a7.2,7.2,0,0,0,2-.3Z"/><path class="cls-2" d="M100.2,14.3c0,7.9-2.8,11.1-6.8,11.1s-6.6-5-6.6-10.8S89,3.9,93.7,3.9,100.2,9.5,100.2,14.3Zm-9.2.4c0,4.8.9,7.2,2.6,7.2s2.4-3.1,2.4-7.4-.6-7-2.4-7S91,10.1,91,14.7Z"/><path class="cls-2" d="M102.8,4.5a24.4,24.4,0,0,1,4.5-.4c2.2,0,4.2.3,5.6,1.6a5.4,5.4,0,0,1,1.7,4.4,5.6,5.6,0,0,1-3.2,5.3h0c1.4.6,2.2,1.9,2.6,4.1a33.8,33.8,0,0,0,1.3,5.7h-4.3a29,29,0,0,1-1-5c-.4-2.6-1-3.4-2.4-3.4h-.6v8.4h-4.1Zm4.1,9.2h.7c1.8,0,2.8-1.4,2.8-3.3s-.7-3.1-2.6-3.1h-1Z"/><path class="cls-2" d="M126.3,15.9h-4.8v5.7h5.4v3.6h-9.5V4.1h9.1V7.7h-5v4.8h4.8Z"/></g></g></svg>