<svg xmlns="http://www.w3.org/2000/svg" viewBox="0 0 119.27 25.63"><defs><style>.cls-1{fill:#0d4778;}.cls-2{fill:#e1e9ef;}</style></defs><title>Asset 9</title><g id="Layer_2" data-name="Layer 2"><g id="Pagina_Inicial_Movil" data-name="Pagina Inicial Movil"><path class="cls-1" d="M11.8,0H35.44a8.84,8.84,0,0,1,5.08,1.92A9.52,9.52,0,0,1,44,9.79c-.05,4.45-3.8,8.68-8.34,8.78q-9.67,0-19.35,0a5.53,5.53,0,0,1-5.22-5.28c-.43-3.21,2.37-6.51,5.68-6.25C22.18,7,27.6,7.06,33,7q0,1.71,0,3.41c-5.42,0-10.83,0-16.25,0a2.93,2.93,0,0,0-1.55.39c-1.63,1.11-1.07,4.26,1,4.36,5.6.06,11.2,0,16.8,0,1.48,0,3.05.17,4.42-.51a5.78,5.78,0,0,0,3-3.34,6.06,6.06,0,0,0-2.64-7.22,6.53,6.53,0,0,0-3.59-.69H11.88a9.14,9.14,0,0,0-8.36,7.11A9.63,9.63,0,0,0,4,16.67a9,9,0,0,0,6.68,5.4,18.86,18.86,0,0,0,3.25.13c6.35,0,12.7,0,19.05,0,0,1.15,0,2.3,0,3.45H11.83a15.73,15.73,0,0,1-4-.88,12.94,12.94,0,0,1-7.4-8.88A23.58,23.58,0,0,1,0,13.13V11.69A14.06,14.06,0,0,1,2.45,5.24,12.34,12.34,0,0,1,11.8,0Z"/><path class="cls-2" d="M51.18,5.72a5.75,5.75,0,0,1,8.07-.9,5.24,5.24,0,0,1,1.88,4.05q0,6.36,0,12.72h-2.2q0-6.46,0-12.92A3,3,0,0,0,56.81,5.8a8.79,8.79,0,0,0-2.53-.12,3,3,0,0,0-2.79,3q0,6.46,0,12.92h-2.2q0-8.81,0-17.62h.8C50.43,4.58,50.81,5.14,51.18,5.72Z"/><path class="cls-2" d="M67.87,4.33a6,6,0,0,1,3.39-.73,5.56,5.56,0,0,1,4.34,1.54,5.47,5.47,0,0,1,1.54,4.34,10.49,10.49,0,0,1-2.19.4A4.06,4.06,0,0,0,74,6.52c-1-1-2.48-.91-3.77-.84a3,3,0,0,0-2.67,2.19,6.21,6.21,0,0,0-.1,1.59q0,3.72,0,7.43a3,3,0,0,0,1.41,2.56,5.33,5.33,0,0,0,3.14.45A3,3,0,0,0,74.73,18,6.15,6.15,0,0,0,75,15.71a10.74,10.74,0,0,1,2.18.4,5.5,5.5,0,0,1-1.35,4.15A5.38,5.38,0,0,1,72.44,22a7.78,7.78,0,0,1-4.56-.7,5.17,5.17,0,0,1-2.58-4.55c0-2.67,0-5.34,0-8A5.15,5.15,0,0,1,67.87,4.33Z"/><path class="cls-2" d="M85.46,3.72a7.61,7.61,0,0,1,5.17.66,5.18,5.18,0,0,1,2.49,4.35c0,2.33,0,4.67,0,7a7.28,7.28,0,0,1-.42,3A5.29,5.29,0,0,1,87.92,22a9.51,9.51,0,0,1-2.9-.23,5.24,5.24,0,0,1-3.74-4.85q0-4.11,0-8.22A5.22,5.22,0,0,1,85.46,3.72Zm0,2.12a3,3,0,0,0-2,2.83c0,2.81,0,5.62,0,8.43a3,3,0,0,0,2.89,2.81,5.39,5.39,0,0,0,3.13-.45,3.08,3.08,0,0,0,1.45-2.59c0-2.73,0-5.46,0-8.18a3,3,0,0,0-2.67-3A8.28,8.28,0,0,0,85.44,5.84Z"/><path class="cls-2" d="M99.16,5.71a5.5,5.5,0,0,1,4.2-2.12h1.25a21.3,21.3,0,0,1,0,2.4,7.9,7.9,0,0,0-3.55.4,3,3,0,0,0-1.58,2.69q0,6.26,0,12.53h-2.2q0-8.81,0-17.61h.79C98.44,4.55,98.83,5.12,99.16,5.71Z"/><path class="cls-2" d="M110.09,4.26a6,6,0,0,1,3.24-.67,5.73,5.73,0,0,1,3.82,1.06,5.23,5.23,0,0,1,2.09,4.23c0,1.37,0,2.74,0,4.11h-9.64c0,1.3,0,2.6,0,3.91a3,3,0,0,0,1.51,2.63,5.63,5.63,0,0,0,3,.39A3,3,0,0,0,116.84,18a6.65,6.65,0,0,0,.23-2.31,17.27,17.27,0,0,1,2.2.38,5.9,5.9,0,0,1-.78,3.41,5.26,5.26,0,0,1-2.84,2.23,10.26,10.26,0,0,1-3.62.23,5.24,5.24,0,0,1-4.6-4.85c0-2.74,0-5.48,0-8.21A5.18,5.18,0,0,1,110.09,4.26Zm-.48,4.22c0,.92,0,1.85,0,2.77H117c0-.86,0-1.71,0-2.57a3,3,0,0,0-2.1-2.87,8.78,8.78,0,0,0-2.55-.12A3,3,0,0,0,109.62,8.48Z"/></g></g></svg>