<svg xmlns="http://www.w3.org/2000/svg" viewBox="0 0 338.73 304.53"><defs><style>.cls-1{fill:#8794f4;}.cls-2{fill:#69af78;}.cls-3{fill:#171b1e;}.cls-4{fill:#fff;}.cls-5{fill:#5d5d5d;}</style></defs><title>Asset 5</title><g id="Layer_2" data-name="Layer 2"><g id="Pagina_Inicial_Desktop" data-name="Pagina Inicial Desktop"><path d="M325.7,238.15"/><path class="cls-1" d="M191.65,0c-81,0-147,65.93-147,147s65.93,147,147,147,147.08-65.83,147.08-146.87S272.69,0,191.65,0Z"/><path class="cls-2" d="M330.91,187c-1.9,0-4.44,1-4.44,1.58s-2.64,1.8-3.59,2.22-2.54,3.06-3,3.91-2.54.63-3.28,1-2.43,1.69-2.43,2.43-.42.63-1-.21L312.21,199l-1.27,1.37c-.74,2.22-3.06,5.07-3.91,5.28s-1,4.12-1,5.71a7.5,7.5,0,0,0,1.37,4.33v1.27l.21,2.54a4.44,4.44,0,0,0,1.48,4c.42.32,4-.63,5.39-1l1.9-.74a149.61,149.61,0,0,0,15.11-35.08A1.06,1.06,0,0,1,330.91,187Z"/><path class="cls-2" d="M88.21,191.85c-.21.42,2.43,3.06,3.38,4a27.48,27.48,0,0,1,3.59,6.76,12.15,12.15,0,0,1,0,4.33,7.4,7.4,0,0,0,.53,2.22c.11.53-.85,4.75-.53,6.55s-2,7.08-1.9,9.83,1.27,6.13,1.69,5.92.63,2.43-.11,2.75-1.8,2.43-1.27,2.54,0,2.22.11,3.06.85,6.45,1,7.82,2.11,4.75,2.54,5.92.85,3.28,1,3.59l.32.74a10,10,0,0,1,2.11,1c.42.32,3.59.11,4.65-.11s.11-1.16-.32-1.58-.85-3-1.37-3.17-.74-3.38-.32-4.12,2.32-1.8,2.54-2.43.21-3.28-.21-3.7.11-3.7-.21-5.39,2.85-3.17,3.06-4.44,3.7-2.75,4.44-3.38,1.48-4.44,1.06-5.18,1.27-1.48,2-1.48a10.57,10.57,0,0,0,1.9-.53c.21,0,1.16-1.69,1.58-2s1.48-4.33,2.32-5a7.19,7.19,0,0,0,1.58-3.7,9.83,9.83,0,0,1,1.8-3.38c.42-.63,3.7-2.11,4.33-2.32s1.48-5.49,1.69-7.4a42.6,42.6,0,0,1,1.27-5.07c0-.63,1.06-1.16,1.27-1.37s1-2.64,1.48-3.17,2.32-2.85,2.32-3.38a16.8,16.8,0,0,1,.63-3v-3.28c-.53-1.58-2.32-3.59-2.75-3.06s-2.43-1.37-3.49-1.8a17.23,17.23,0,0,0-4.23-.63c-.63,0-2.85-1.8-3.91-2.11a35.22,35.22,0,0,1-4-1.06c-.42-.32-1.06-4.12-3.17-5.39s-5.71-4.23-6.13-5.28-4.33-3.28-5.6-4-3.06-.85-3.28-.53-1.8-2.11-2.54-2.75-3.17-1.16-3.28-.63-1.69.21-2-.21-1.58.21-2.22.42-2.54,3.17-3.49,3.91-2-.63-2.64-1a6.34,6.34,0,0,0-3.49,1c-.63.42-2-3.17-1.69-4.86s-1.48-5-3-5.07-1.8-3.59-1.58-4.86-2.54-2.11-3.28-2.22-2.43,1.69-2.75,2.64-6.76-1.16-6-5.07,3.8-7.92,4.54-8.35,4.86-.63,5.81-.11a1.69,1.69,0,0,0,1.9-.21,12.89,12.89,0,0,1,4.54.42c1,.42,2.43,4.33,3.49,4.75s1.37-2.54,1.58-3.28a9.51,9.51,0,0,0-.74-3.06c-.21-.53,1.69-5.28,3.28-6s3.28-3.49,3.06-3.91,1.27-.85,1.58-1.06,0-4,.53-4.86a18.18,18.18,0,0,1,4.54-3c1-.42,1.58-2.75,1.27-3.28s2.43-2.75,3.91-3.28,2.64.85,2.32,1,2.22-1.16,3.06-1.69,0-2.43-.63-3-.21-2.54.53-2.75a2.66,2.66,0,0,0,1.16-2.32c-.21-.32,3.17.32,4.44-.63s.32,2.22-.53,3.59a1.48,1.48,0,0,0,1.27,2.32,1.37,1.37,0,0,1,1.37,1.06c.11.32,1.37-.42,2.22,0s1.37-1.16,1.37-1.9-2-2.11-2.32-3.06a48.6,48.6,0,0,1-.42-6.87c0-1-1.37-2.64-1.8-2.32s-1.27-2.64-2-3.28a3.7,3.7,0,0,1-.85-2.54c0-.42-2.32-3-3-4.12s-1.37-1-1.48-.42-1.69.63-2.43.53-1.27-2.75-1.27-3.7-3.06-1.16-3.59-2-2.54-.42-2.85-1a3.38,3.38,0,0,0-2.43-.85c-.32.21-.21,7.5-.53,9.4s-2,3.7-2.64,3.59S91.69,83,92,82.92,90.85,85,90.63,86.51s-1.69,0-1.9-1.37S87,82,86.73,82.39s-1.27-.53-1.69-.21S81.86,80.59,80.7,80s-1.69-4-2.43-4.33-.11-.74-.11-1.27,2.22-2.54,2.85-3.28a52.36,52.36,0,0,1,4-4.65c1-.74,1.69-2.43,1.48-2.75s4.12-1.69,5.28-2,2.11-3.59,2.32-4.54a3.91,3.91,0,0,0-1.27-2.85c-.53-.21,1.58-.32,2.32.11s2.85-.63,3.8-.21l3.91,2.32-.21,2.32-.53,4c-3.38,1.37-4.33,3.8-3.17,3.7s6.55,2.32,8,3.38,2-1.58,2.43-2.43a7.08,7.08,0,0,0,0-3.91c-.42-.53,1.69-.32,2.32.21s1.27-.53,1.69-.85.63-2.43,1-2.85-1-.85-1.06-1.48-2.43-1.58-3.17-2a1.9,1.9,0,0,1-.53-2.32c.32-.32-.21-2.43-.63-3.06S106.17,50,105.32,50s-1.69-1.9-2.22-2.22a15.43,15.43,0,0,0-4.54-.42c-.74.21-2.22-2.32-3.59-1.48s-2.75-.85-3.38-1.27-3.8,3.06-3.7,5.39S89,54.6,89.58,54.71s-.11,2.22-.63,2.85-1.9-.63-1.37-1.16-1.37-3.06-2-4-2.11-1.37-3.17-1.8l-1.9,2.11a5.39,5.39,0,0,1,.21,2.85C80.28,57,79,57.24,79,56.61a1.8,1.8,0,0,0-1.37-.53,146.13,146.13,0,0,0-33.07,76.81,7,7,0,0,1,1.69,2.43c.42,1.27,2.64,2.11,3.06,2.43s.53-2.43.21-3.17.53-1.06.53-.63,2.11,2.85,2.75,3.8,1.37,6.45,2.11,7.61,7.08,3.7,9.19,4.12a11.62,11.62,0,0,1,5.07,3.38c.42.63,3.17,1,3.7,1.27a29.33,29.33,0,0,1,2.54,2.54,3.7,3.7,0,0,1,1.06,1.8c0,.32,3.59,1.69,4.54,2.64a2.22,2.22,0,0,0,2.64.32c.21-.42,1,1.9,1.37,2.75a4.41,4.41,0,0,1,.11,3.06c-.32.32-.74,3.91-1.37,4.65s-1.9,6-1.58,7.08a7.82,7.82,0,0,0,2.75,3.49.85.85,0,0,1-.11,1.48c-.53,0-.32,5.18,1.06,5.92S88.42,191.54,88.21,191.85Z"/><path class="cls-2" d="M201.79,222.2c1.8-1.06,5.07-5.81,6.13-6.76s1.8-4.54,2-5.28a6,6,0,0,1,2.32-2.22c.53-.21,2.43-8,4.12-9.83s3.59-10,3.38-13.1,1.06-8.66,1.48-10a15.43,15.43,0,0,1,3.06-4.33,88.66,88.66,0,0,0,5.92-8.56c1.27-2.11,2.54-6.76,2.22-7.92s-3.06-1.9-3.59-1.27-3.17,1-4,1-2.75-4.54-3.91-5.39-2.22-6.13-3-7.08a49,49,0,0,0-3.17-4c-.63-.53-.74-3.28-.85-4s1.16.42,1.37,1.58,3.28,5.49,4.23,7,3.49,6.23,4.12,7.71,6.23.74,8.14-.11,4.12-2.32,4.23-2.85,3-1.8,3.8-2.43,1.48-4,2-4.54-.42-3.8-1.06-4.75-3.49-1.69-4.12-1.37-1.8-2.11-2.32-3.06-2.64-2.11-2.85-2.75a2.32,2.32,0,0,1,1-1.9c.32-.21,4.44,2.64,5.6,4.12a23.25,23.25,0,0,1,2.75,4.54c.21.53,3.49.63,4.23.11a1.16,1.16,0,0,1,1.64.1,1.15,1.15,0,0,1,.16.22h1l3.59-.53a7,7,0,0,1,2.11,3.8,4.12,4.12,0,0,0,1.69,2c.63.11,1.16,2.43,1.37,3.06a51,51,0,0,1,2.64,5.49,30.76,30.76,0,0,0,2.54,5.07,11.62,11.62,0,0,1,.74,3.59,2.43,2.43,0,0,0,2.11,1.69c.74-.11,2.43-5.18,2.85-7.08s1.69-3.49,2-3.49.63-1.06.63-1.48,2-.32,2.22-.85.74-3.91,1.48-4.44a31.8,31.8,0,0,1,4.23-2.54c.85-.32,3.28,1.69,3.8,2.64a7.93,7.93,0,0,1,.74,3.7c-.21.32,1.16,2.43,2.43,2.43s1.58,1.58,1.69,2.11,1.69,2.22,2,3a7,7,0,0,1,0,3.28,16.8,16.8,0,0,0,.11,3.91c.21.74,4,4.65,5.49,5.81s2.11-2.43,1.37-3.49-3.28-3.7-3.8-4.44-.63-3.91-.42-4.75,2.22.42,3,1.06a6.13,6.13,0,0,1,1.9,2.43c0,.42,5.18-2.43,5.39-5.49s1.9-6.66,2-7.5a2.22,2.22,0,0,0-1-2c-.42-.11.74-2.32,2.22-2.32s4.86-3.8,5.71-5.39a12.26,12.26,0,0,1,2.64-3,22.62,22.62,0,0,0,1.48-5.28c.21-1.48-.85-3.8-1-4.65a12.57,12.57,0,0,0-1.69-3.06,6.45,6.45,0,0,1-.42-3.06c.11-.32,1.48-.74,1.58-1.16s1.58-1.9,1.48-2.64.85,1,1.58,1.48,1.37,4.33,2.22,4.65,4.23-3.91,3.8-6.76,1-6.45,1.8-6.76,2.22-2.54,3.28-4.12a147.08,147.08,0,0,0-36.24-57.06h-.53l-1.27-.21c-2.11-.42-3.28-2.64-3-3.17a1.37,1.37,0,0,0,0-1c-1.16-1.06-2.32-2.11-3.59-3.06h-2.64A11.62,11.62,0,0,1,275.75,34c-.42-.42-2.11.42-2.22,1.37s-3,1.27-3.17,2a1.69,1.69,0,0,1-2,.42c-.21-.42-3,1-4.23,1.06a19.24,19.24,0,0,0-4.33,1.48,6.55,6.55,0,0,0-2.22,2.22,6.87,6.87,0,0,1-2.43,1.69c-.53.21-.42,2.64.21,3.06s-1.27-.32-2.22-.74-1.8,1.06-2.11,1.58S250,47.86,250,47.12s-2.22-1.27-2.43-.74-1.8-.21-2.43-.53-3.38,2.54-4.44,3.59-5.92,1.8-6.76,1.48-1.8,2.11-1.06,2.32h-3a25.78,25.78,0,0,0-7,2.64,1.16,1.16,0,0,1-1.9-.74c0-.63-1.69-1.16-2.11-1.27s-1.48,3.28-2.32,3.91-1.9-2.64-4-3.28-5.28-2.54-6.23-2.75-2.75-2.11-3.28-2.75-3.17-1-4-1-3.59,1.58-4.33,2.11-1.8.42-2.22.74S189,54.1,187.84,55s-3.28,5-3.91,6a2.54,2.54,0,0,1-2,1.16,2,2,0,0,0-.74,1.48c0,.42-3.49,2.22-3.91,3.8s.42,5.28.42,6.55S179,78,179.92,78s.53,2.22.21,2.85.63,1.27.53,1.8-2.43,1.27-3.17,1.48a5.28,5.28,0,0,0-2.11,2.64c-.11.53-2.43,1-3.28,1.69a9.62,9.62,0,0,1,.63-1.69,2.85,2.85,0,0,0-.53-2.64c-.32-.32-.53-4.54-1.16-5.49a23.68,23.68,0,0,0-2.43-2.75c-.32-.32.21-1.37.53-1.9s-2-.74-2.54-.42-1,4.54-1.16,5.71a3.59,3.59,0,0,0,1.48,3c.42.11.21,2.11-.53,2.22s-1.48,3.06-1.06,3.8-.53,2-1,2.32,3,.11,4.54.11a4.12,4.12,0,0,1,2.64.74c-.11.11-3,.53-3.49,1.16s-2.43,1.9-2.75,2.43.63,1.58,1.37,1.58,1.69,2.75,2.32,3.28a2.32,2.32,0,0,1,.11,2.43c-.21.42-4.12-.21-5.49.11s-3.28,3.38-3.38,4.54a30,30,0,0,0,.42,5.39c.11,1,3.17,1.48,3.8,1.9s3.49,0,4.12.32,2.54-3,3-4.44,3.49-4.23,4.12-5.28,3.91-.85,4.75-1.37.42,2.54.74,4.23,3.59,1.48,3.06-.11.32-2.22.42-1.69,3.17,1.8,3.8,2.64.42,2.75-.21,2.75-.74,2,0,2.32,1.69-2.32,2.43-2.75,1.37-2,1.06-2.11.63-1.58,1.06-1.06a18.85,18.85,0,0,0-3-4.44c-1.37-1.37-.32-.74,2,1.27l1.69,2.32c.32.42.74,1.69,1.06,2.11l.42.63a17.13,17.13,0,0,1,.63,3.7,2.43,2.43,0,0,0,2.11,1.69,1.37,1.37,0,0,1,1.27.42c-.11.11.53,1.58,1.27,1.58s1.16-2,.32-2-.63-3-.74-4.33.53-2.32.85-2.32,0,2.64,0,3.28a10.26,10.26,0,0,0,.74,2.64l.85.63,1.8,1.37c2.64-.74,6.23-.11,6,.42s1.9.63,2-.21.21.11.21.63-1.69,3-2,4-6.45.32-9.09.11-6.55.63-6.76,1.48-4.33-1.8-6.23-2.54-3.38-3.59-3.7-4,.32-1.27.11-1.9-4.44-.63-5.71-.21-7.71,1.16-9.19,1.8-3.8,0-4.54-.11-2.43,2-3.28,2.32-1.9,3.38-2.43,6.66l-1.16,2.22-.74,1.48c-2.11,1.58-4.44,7-5.18,8.14s-1.27,8.88-1.27,11.52,2.22,8.14,3,9.72,4.54,4.86,5.92,5.71,5.6,1,7,1a4.12,4.12,0,0,0,3.49-3l2,.21h1c0,1.16,3.06,2,3.8,2.43a5.81,5.81,0,0,0,3.28-.11c.53-.11,1.27,5.18.85,6.76s1.06,7,1.48,8.66,2.32,6.13,2.43,7.71-1.06,7-1.27,8.88,2.32,7.08,3,8.88a32.75,32.75,0,0,1,1.16,6.55c0,.85,2.75,6.34,3.38,8.56S199.89,223.26,201.79,222.2Z"/><path class="cls-2" d="M322.88,155.43c.11.42,1.9-1,3-1.16s1.69-3,.85-3.17-1.8-2.43-2.43-2.64-1.69,1-1.69,1.8-1.9,1.16-2.32,1.9-.32,1.16,0,1.16A9.69,9.69,0,0,1,322.88,155.43Z"/><path class="cls-2" d="M320.76,171c.53-.21,0-3-1.16-3.17s-4.12,3.7-3.59,5.92,1.16,2.11,1.48,1.58,2.11.32,2.64.42.53-.32,0-1.16S320.24,171.17,320.76,171Z"/><path class="cls-2" d="M314.74,168.21c.11-1,.32-4.12.42-4.75s-1.69-2.43-2.64-2.75-3.8,6-5.92,7.18-2.85,5.07-2.32,5.92,5,1.37,5.71,2,1.58-.11,2.11-.21.32-.42.11-.53,1.48-1.9,1.8-3.06A29.16,29.16,0,0,0,314.74,168.21Z"/><path class="cls-2" d="M302.7,178.88c-1.58-.63-3.59.32-3.7,1s6.34,1.69,8.56,2.22,3.49.74,3.06.42Z"/><path class="cls-2" d="M316.11,136.09c.53-.74-.74-4.12-1.37-3.38s-.11,2.75,0,3.49S315.59,136.83,316.11,136.09Z"/><path class="cls-2" d="M319.92,143.49c.42-.85-.42-1.8-1.9-2.11s-1.16,3.91-.53,4.44S319.6,144.33,319.92,143.49Z"/><path class="cls-2" d="M327.42,169.9c1.69,1.16,5.49.63,5.6-1.58C331.33,167.15,327.31,167.37,327.42,169.9Z"/><path class="cls-2" d="M326.47,117.49a2.43,2.43,0,0,0-.85,2.22h-.32c-.53,0-.63,2.22,0,2.64s2-1.69,2.75-2.22a3.59,3.59,0,0,1,2.43-.63,7.08,7.08,0,0,0,2.85-.85,2.53,2.53,0,0,0,.85-1c-.32-1.58-.74-3.17-1.06-4.86l-1.9,1.37Z"/><path class="cls-2" d="M298.15,172.54a19.44,19.44,0,0,0-4.44-5.18l-.63-1.16-.74-1.27c-.63-1.37-2.75-2.43-3-2.85s-.85,1.16-1.58.74l2.22,1.58c1.9,1.37,5.71,11,6.66,11.62S298.79,173.92,298.15,172.54Z"/><path class="cls-2" d="M267.83,157c-.53,1.06,2.75,3.38,3.06,2.85a7,7,0,0,0-1-3.7C269.31,155.53,268.46,156,267.83,157Z"/><path class="cls-2" d="M223.45,208.15c.11,1.16,2.43,2,3.06,1.8s2.54-3.59,2.75-4.54a29.71,29.71,0,0,0,.53-3.59,4.65,4.65,0,0,1,.53-1.8,7.08,7.08,0,0,0,1-2.54c.21-1.27-1.37-7.29-1.37-8.35s-1.16.53-1.48,1.58-3.28,3.28-4,4.12-1.37,3.91-1.06,4.44a6.76,6.76,0,0,1-.53,3.17C222.39,203.08,223.24,207.09,223.45,208.15Z"/><path class="cls-2" d="M198.3,26.63a7.29,7.29,0,0,0,4.86-1.9c.53-.42-5.71-1.69-8.14-1.8s-4.23.21-4.23.74S196.3,26.31,198.3,26.63Z"/><path class="cls-2" d="M235,40.15c1.06-1.06,5.71-2.64,6.23-3.8a1.48,1.48,0,0,0-.55-2l-.19-.09a1.58,1.58,0,0,0-1.16.74c-.11.21-5.39,1.37-7,2.22a17.54,17.54,0,0,0-4.12,2.64c-.63.63-1.8,5.92-2.11,6.45s1.69,2.64,2.64,3.28a4.86,4.86,0,0,0,2.64.21c.42-.11-.42-3.7-1-5S233.91,41.31,235,40.15Z"/><path class="cls-2" d="M229.37,26.52c1.69,1.69,2.64-.74,4.54-.53C233.91,22.4,229.16,23.77,229.37,26.52Z"/><path class="cls-2" d="M263.07,27.26c0,.63,4.75,1.16,6.23.85S269,25.68,267,25.78,263.07,26.63,263.07,27.26Z"/><path class="cls-2" d="M333.87,171.8c-.42.21-2.54.42-2.85.11s-.63.85-1.16,1.06-.21,1.27.53,1,2.54.85,4.12,1.9c.32-1.58.63-3.28.85-5Z"/><path class="cls-2" d="M88.21,190.72c-.21.42,2.43,3.06,3.38,4a27.48,27.48,0,0,1,3.59,6.76,12.15,12.15,0,0,1,0,4.33,7.4,7.4,0,0,0,.53,2.22c.11.53-.85,4.75-.53,6.55s-2,7.08-1.9,9.83,1.27,6.13,1.69,5.92.63,2.43-.11,2.75-1.8,2.43-1.27,2.54,0,2.22.11,3.06.85,6.45,1,7.82,2.11,4.75,2.54,5.92.85,3.28,1,3.59l.32.74a10,10,0,0,1,2.11,1c.42.32,3.59.11,4.65-.11s.11-1.16-.32-1.58-.85-3-1.37-3.17-.74-3.38-.32-4.12,2.32-1.8,2.54-2.43.21-3.28-.21-3.7.11-3.7-.21-5.39,2.85-3.17,3.06-4.44,3.7-2.75,4.44-3.38,1.48-4.44,1.06-5.18,1.27-1.48,2-1.48a10.57,10.57,0,0,0,1.9-.53c.21,0,1.16-1.69,1.58-2s1.48-4.33,2.32-5a7.19,7.19,0,0,0,1.58-3.7,9.83,9.83,0,0,1,1.8-3.38c.42-.63,3.7-2.11,4.33-2.32s1.48-5.49,1.69-7.4a42.6,42.6,0,0,1,1.27-5.07c0-.63,1.06-1.16,1.27-1.37s1-2.64,1.48-3.17,2.32-2.85,2.32-3.38a16.8,16.8,0,0,1,.63-3V179.2c-.53-1.58-2.32-3.59-2.75-3.06s-2.43-1.37-3.49-1.8a17.23,17.23,0,0,0-4.23-.63c-.63,0-2.85-1.8-3.91-2.11a35.22,35.22,0,0,1-4-1.06c-.42-.32-1.06-4.12-3.17-5.39s-5.71-4.23-6.13-5.28-4.33-3.28-5.6-4-3.06-.85-3.28-.53-1.8-2.11-2.54-2.75-3.17-1.16-3.28-.63-1.69.21-2-.21-1.58.21-2.22.42-2.54,3.17-3.49,3.91-2-.63-2.64-1a6.34,6.34,0,0,0-3.49,1c-.63.42-2-3.17-1.69-4.86s-1.48-5-3-5.07-1.8-3.59-1.58-4.86-2.54-2.11-3.28-2.22-2.43,1.69-2.75,2.64-6.76-1.16-6-5.07,3.8-7.92,4.54-8.35,4.86-.63,5.81-.11a1.69,1.69,0,0,0,1.9-.21,12.89,12.89,0,0,1,4.54.42c1,.42,2.43,4.33,3.49,4.75s1.37-2.54,1.58-3.28a9.51,9.51,0,0,0-.74-3.06c-.21-.53,1.69-5.28,3.28-6s3.28-3.49,3.06-3.91,1.27-.85,1.58-1.06,0-4,.53-4.86a18.18,18.18,0,0,1,4.54-3c1-.42,1.58-2.75,1.27-3.28s2.43-2.75,3.91-3.28,2.64.85,2.32,1,2.22-1.16,3.06-1.69,0-2.43-.63-3-.21-2.54.53-2.75a2.66,2.66,0,0,0,1.16-2.32c-.21-.32,3.17.32,4.44-.63s.32,2.22-.53,3.59a1.48,1.48,0,0,0,1.27,2.32A1.37,1.37,0,0,1,115.89,99c.11.32,1.37-.42,2.22,0s1.37-1.16,1.37-1.9-2-2.11-2.32-3.06a48.6,48.6,0,0,1-.42-6.87c0-1-1.37-2.64-1.8-2.32s-1.27-2.64-2-3.28a3.7,3.7,0,0,1-.85-2.54c0-.42-2.32-3-3-4.12s-1.37-1-1.48-.42-1.69.63-2.43.53-1.27-2.75-1.27-3.7-3.06-1.16-3.59-2-2.54-.42-2.85-1a3.38,3.38,0,0,0-2.43-.85c-.32.21-.21,7.5-.53,9.4s-2,3.7-2.64,3.59-.21,1.37.11,1.27-1.16,2.11-1.37,3.59-1.69,0-1.9-1.37-1.69-3.17-2-2.75S85.46,80.72,85,81s-3.17-1.58-4.33-2.22-1.69-4-2.43-4.33-.11-.74-.11-1.27,2.22-2.54,2.85-3.28a52.36,52.36,0,0,1,4-4.65c1-.74,1.69-2.43,1.48-2.75s4.12-1.69,5.28-2,2.11-3.59,2.32-4.54a3.91,3.91,0,0,0-1.27-2.85c-.53-.21,1.58-.32,2.32.11S98,52.62,99,53l3.91,2.32-.21,2.32-.53,4c-3.38,1.37-4.33,3.8-3.17,3.7s6.55,2.32,8,3.38,2-1.58,2.43-2.43a7.08,7.08,0,0,0,0-3.91c-.42-.53,1.69-.32,2.32.21s1.27-.53,1.69-.85.63-2.43,1-2.85-1-.85-1.06-1.48-2.43-1.58-3.17-2a1.9,1.9,0,0,1-.53-2.32c.32-.32-.21-2.43-.63-3.06s-2.85-1.27-3.7-1.27-1.69-1.9-2.22-2.22a15.43,15.43,0,0,0-4.54-.42c-.74.21-2.22-2.32-3.59-1.48s-2.75-.85-3.38-1.27-3.8,3.06-3.7,5.39,1.16,4.65,1.69,4.75-.11,2.22-.63,2.85-1.9-.63-1.37-1.16-1.37-3.06-2-4-2.11-1.37-3.17-1.8l-1.9,2.11a5.39,5.39,0,0,1,.21,2.85C80.28,55.89,79,56.1,79,55.47a1.8,1.8,0,0,0-1.37-.53l-1.9,2.43-1.9,2.43-1.9,2.64-1.69,2.32-2.43,3.59-2.22,3.49c-.63,1-1.16,2-1.8,3.06A11.83,11.83,0,0,0,62.63,77l-1.8,3.28-1,1.9c-1.27,2.54-2.54,5.18-3.7,7.92v.21l-1.58,4L54,95.83,52.49,100l-.21.63a145.36,145.36,0,0,0-4.12,14.26c-.11.32-.11.63-.21,1a145.69,145.69,0,0,0-2.64,15.53h0A7,7,0,0,1,47,133.76c.42,1.27,2.64,2.11,3.06,2.43s.53-2.43.21-3.17.53-1.06.53-.63,2.11,2.85,2.75,3.8,1.37,6.45,2.11,7.61,7.08,3.7,9.19,4.12a11.62,11.62,0,0,1,5.07,3.38c.42.63,3.17,1,3.7,1.27a29.33,29.33,0,0,1,2.54,2.54,3.7,3.7,0,0,1,1.06,1.8c0,.32,3.59,1.69,4.54,2.64a2.22,2.22,0,0,0,2.64.32c.21-.42,1,1.9,1.37,2.75a4.41,4.41,0,0,1,.11,3.06c-.32.32-.74,3.91-1.37,4.65s-1.9,6-1.58,7.08a7.82,7.82,0,0,0,2.75,3.49.85.85,0,0,1-.11,1.48c-.53,0-.32,5.18,1.06,5.92S88.42,190.4,88.21,190.72Z"/><path class="cls-2" d="M95.39,39.2c1.69-.32,4.65-.85,4.86-1.27a4.44,4.44,0,0,0-.11-2H101c.63,0,1.8-3.59,2.43-4.44s4.65-2.11,5.6-2.64,3.06-2.54,3.8-2.85,2-2.11,1.8-2.43,2.75-2.11,3.8-2.54,1.69-1.69,1.27-1.8-6.34,3.17-11.94,6.34h-.11L102.89,29l-3.06,2.43-1.58,1.27-3.59,3.06-.74.63L90,39.83Z"/><path class="cls-2" d="M115.15,250h2C117.37,247.77,115,248.09,115.15,250Z"/><path class="cls-2" d="M155.72,48.92c1.06.42,3-1,2.22-1.48s-.32-.53,0-.32.74-1.8.42-2.22,3-2.85,2.43-5.18,1-4.75,1.8-4.75.63-2.64-.53-2.85,0-.42.42-.85a6.65,6.65,0,0,0,.63-3.17c-.21-.42,1.69-1,2-1.48a8.24,8.24,0,0,1,3.28-1.69c.85-.11,1.16-2.22.42-2.11a6.76,6.76,0,0,1-3.38-.74c-.42-.42-3.59-.74-4.54-.42s-.32-2.32,1-2.54.21-2.11-1.16-2.11-4.86-.53-5.6-.32a13.64,13.64,0,0,1-3-.63c-.53-.11-4.75,1.27-6.66,1.16a44.58,44.58,0,0,0-7.82.42c-1.06.21-1.8,2.32-1.58,3.06s-4.65.74-6.13.74-9.62,1.69-11.73,2.85-3.7,4.12-3.06,4.12-1.16,1.69-2.32,2.11-3.8.53-4.44,1.16.63,1.06.85,1.48,1-.42,1.69,0,3.06.53,3.7.85-2,.74-3.17.85-1,2.43,0,2.85,3.59.63,3.8.21,3.06.42,4.33.63,2.22,3.28,2.64,4,.42,3.06.42,3.8,2.22,1.9,2.64,1.48.32,1.06-.63,1-.32,2.54.85,3,.32,2-.32,2.54-.32,2-1,2.64,2.43,5.92,2.32,8.66,1.69,5,2.32,5,2.85.53,3.17,1.16,1.37-.42,1.8-.85a27.13,27.13,0,0,0,2-3c.74-1.16,2.22-6.66,2.43-7.29s2.75-.21,3.38-.53a26.83,26.83,0,0,0,2.75-2c.42-.42,4.12-1.9,5.18-2.64s2.64-3.8,3.49-4.54-.42-.42-1.37-1.06a1.06,1.06,0,0,1-.21-1.69C151.71,47.76,154.77,48.5,155.72,48.92Z"/><path class="cls-2" d="M188.05,24.51c-1.06-.32-3.17.85-2.85,1.48s-1.69-.85-3.06-.11-1.8,3.17-1.16,3.49S182,31.59,182,32s2.64.11,3.38-.42.53,1.9-.11,2.64.21,2,1,2.11,1.69,1.8,2.54,1.8a2.54,2.54,0,0,0,1.37-1.58V27.47h0C189.64,27.47,189.11,24.83,188.05,24.51Z"/><path class="cls-2" d="M162.7,85.8a1.69,1.69,0,0,0,1.37-1.48c0-.63-1.16-3.7-1.58-3.7s-1.27,2.22-1.9,2-.85,1.8-.74,2.54S161.74,86,162.7,85.8Z"/><path class="cls-2" d="M159.74,63.08A2.11,2.11,0,0,0,162,64.24c1-.11,2.85-1.16,3.59-1.27s1.37-3.49,1-4.23-3.59-.63-4.44-.63a11.2,11.2,0,0,1-3.7-1.37c-.53-.53-.74,2-1.48,2.32s.32.74.63.53,0,1.27-.42,1.8S159.53,62.44,159.74,63.08Z"/><path class="cls-2" d="M90.21,140.42c1-.21.53,1.37.74,2s2.64,1.06,3.17,1.48,1.69-.74,2.64-.63-.32-3.38-1.9-3.28-2.85-1.48-3.28-1.69a17.54,17.54,0,0,1-2.75-1.69c-.53-.42-4.65-.74-6-.74a4.33,4.33,0,0,0-3.17,1.9c-.21.42,2.22.85,2.85.42s3.91.42,4.65,1.16A3.91,3.91,0,0,0,90.21,140.42Z"/><path class="cls-2" d="M85.78,143.91c0,.42,2.11.11,2.64.11s.53-.42,0-.74S85.78,143.49,85.78,143.91Z"/><path class="cls-2" d="M87.25,132.92c-.53-.21-1,.63-1,1.06a.74.74,0,0,0,.63.74C87.36,134.72,87.89,133.13,87.25,132.92Z"/><path class="cls-2" d="M91.8,133.24a1.8,1.8,0,0,0-1.37-.74c-.32,0-.42.63-.42,1.58S91.9,133.66,91.8,133.24Z"/><path class="cls-2" d="M95,138.2c.85-.42,1-1.37.42-1.37s-1.48-1.48-2-1.69-1,1-1,1.37a.63.63,0,0,0,.52.73h.11C93.49,137.15,94.12,138.63,95,138.2Z"/><path class="cls-3" d="M99.53,73H17.86A17.86,17.86,0,0,0,0,90.89V286.68a17.86,17.86,0,0,0,17.86,17.86H99.53a17.86,17.86,0,0,0,17.86-17.86V91A17.75,17.75,0,0,0,99.85,73Z"/><path class="cls-4" d="M43.21,87H74.07a1.58,1.58,0,0,1,1.58,1.58,1.48,1.48,0,0,1-1.37,1.58H43.21a1.58,1.58,0,0,1,0-3.17Z"/><path class="cls-4" d="M58.64,291.43A10.35,10.35,0,1,1,69,281.08,10.46,10.46,0,0,1,58.64,291.43Z"/><rect class="cls-4" x="7.61" y="108.32" width="101.96" height="150.98"/><path class="cls-3" d="M58.64,273.89a7.29,7.29,0,0,0-7.18,7.18,7.18,7.18,0,1,0,7.18-7.18Z"/><rect class="cls-5" x="13.52" y="143.19" width="90.23" height="46.4"/><rect class="cls-5" x="38.25" y="123.22" width="65.19" height="6.45"/><path class="cls-5" d="M30.43,126.5A8.45,8.45,0,1,1,22,118,8.45,8.45,0,0,1,30.43,126.5Z"/><rect class="cls-5" x="13.52" y="219.37" width="90.23" height="2.65"/><rect class="cls-5" x="13.52" y="228.56" width="90.23" height="2.65"/><rect class="cls-5" x="13.52" y="237.65" width="90.23" height="2.65"/><rect class="cls-5" x="13.52" y="246.74" width="65.51" height="2.65"/><rect class="cls-5" x="13.52" y="201.73" width="60.01" height="6.45"/></g></g></svg>