<svg xmlns="http://www.w3.org/2000/svg" viewBox="0 0 917 664.7"><defs><style>.cls-1{fill:#cbc9be;}.cls-2{fill:#8b8e8e;}.cls-3{fill:#4a4b4c;}.cls-4{fill:#8e5119;}.cls-5{fill:#fcbf82;}.cls-6{fill:#57b6e7;}.cls-7{fill:#35a6e0;}.cls-8{fill:#7b7f7f;}</style></defs><title>Asset 14</title><g id="Layer_2" data-name="Layer 2"><g id="Pagina_Inicial_Movil" data-name="Pagina Inicial Movil"><path class="cls-1" d="M434.82,0H448a270.13,270.13,0,0,1,2,53.42c69.62.1,139.24.84,208.86-.35C658.37,35.37,656,17,662.39,0h13a276.1,276.1,0,0,1,2.06,54q-123,1.63-246-.07C431,36,428.56,17.32,434.82,0Z"/><path class="cls-1" d="M658.69,271.27q9.39.05,18.79,0c.35,34.53.07,69.09.17,103.62,18.93-.21,38.45,2.52,56.92-2.59,12.1-6.51,20.64-17.81,30.65-27-3.43,14.34-2.2,33.3-15.53,42.65-28.62,4.62-58,.56-86.9,1.68-1.08-5.81-2.41-11.54-3.5-17.32C657.15,338.68,658.72,304.92,658.69,271.27Z"/><path class="cls-1" d="M791.21,323.57a100,100,0,0,0,29.25-6.4c10.92,5.46,21.06,13.68,24.73,25.82,11.58,34.21,8.12,71,13.71,106.25a228.41,228.41,0,0,1-.52,26.8l-.07.7-3.22,4.13a174.61,174.61,0,0,0-1.64-29.63c-32-2.62-64.13.42-96.07-2.17-4-.7-8-1.43-12-2.2,1.54-6.93,3-13.85,4.62-20.75,18.12-8.85,34.14-21.66,45.83-38.17,9.8-13.54,23.37-28.76,19.38-46.74-5.39-11.72-19.73-9-29.81-7.17C787.32,330.53,789.25,327,791.21,323.57Z"/><path class="cls-1" d="M658.55,447.8h18.72c.1,7.38.17,14.8.24,22.18A110.85,110.85,0,0,0,659,479.84Q658.6,463.79,658.55,447.8Z"/><path class="cls-2" d="M367.76,54.05c21.2.28,42.44.14,63.67-.1q123,1.89,246,.07c20.89.17,41.81.35,62.69,0-.73,45.34,1.54,90.78-1.19,136.09a110.75,110.75,0,0,0,.8,28.86c.87,17.42.28,34.88.38,52.3q-31.33-.37-62.66,0-9.39.05-18.79,0c-11.58-.1-23.16-.14-34.74,0-.73-7.38-1.68-14.76-2.48-22.18,33.13,2.48,66.4.49,99.57,1.12q-.31-87.58,0-175.17c-111.11-.14-222.22.07-333.33-.1,0,7.7.07,15.43,0,23.16a187.63,187.63,0,0,0-19.63,5C367.72,86.73,367.76,70.39,367.76,54.05Z"/><path class="cls-2" d="M367.48,195.63c4,5.32,8.5,10.25,12.94,15.22-.17,4.62-.35,9.2-.52,13.82l-4.16-.66L368,225.26C367.93,215.36,368,205.5,367.48,195.63Z"/><path class="cls-2" d="M471,250.42c40-1.22,80.08,1.29,120-1.29l-.8,4.37c-10,6.4-20.47,11.93-31,17.32-24.66.8-49.36.07-74.06.24C480.55,264.1,475.93,257.13,471,250.42Z"/><path class="cls-2" d="M874.71,332.74c2.2-15.64,22.67-21.52,34.32-12.1,11.23,7.17,7.66,21.73,6.51,32.75-6,38.27-9.66,76.9-16.09,115.06-.94,10.22-11.54,13.82-19.63,17.07-7.28-2.9-14.34-6.23-21.45-9.48a228.41,228.41,0,0,0,.52-26.8C864.08,410.4,868.59,371.39,874.71,332.74Z"/><path class="cls-2" d="M.74,330.71c5.63-17.28,36.35-19.42,41-.38,8,38.59,8,78.61,18.33,116.74,0,.38.07,1.19.1,1.57-.45,8.92-.87,17.88-.63,26.83-7.42,3.43-14.76,7-22.35,10-5.42-2.24-11.23-4.16-15.67-8.12-4.3-5.28-4.51-12.56-5.84-19-4.83-34.95-9.1-70-14.27-104.85C.53,346-.87,338.23.74,330.71Z"/><path class="cls-2" d="M59.58,476l2.27,4.41c5.28,9.73,12.49,20.47,24.31,22.39,32.36,5.53,65.42,1.85,98,4.72,12.66-.1,12.28,16,13.68,24.91-21.66,2.55-43.52,1.71-65.28,1.75-5.21,0-10.39,0-15.6,0-19.52-.91-39.67,2.52-58.81-2.34-12-4.48-12.49-18.58-11.12-29.35C55.38,495.9,63.39,487.72,59.58,476Z"/><path class="cls-2" d="M830.7,502.55c11.93-1.68,17.77-13.08,24.38-21.69l3.22-4.13c-.66,4.44-1.36,8.92-2.06,13.36,4.65,3.92,9.38,7.8,14.1,11.65.77,11.06.84,25.5-11.58,30.16-19.14,4.83-39.22,1.4-58.74,2.31q-7.77-.05-15.53,0c-21.83,0-43.77.87-65.46-1.89,1.15-8.15,1.12-18.16,8.19-23.75C761.43,503.49,796.63,509.34,830.7,502.55Z"/><path class="cls-3" d="M368.11,103.1a187.63,187.63,0,0,1,19.63-5c16.9-1.22,33.58,3.18,48.21,11.61-3.25,12.14,0,24.56.56,36.8-3.88,11.09-6.58,22.53-10.32,33.65-1.33-17-.84-34.11-4.16-50.87-8,2.8-16,6.58-24.56,6.89-10.46-.66-18.68-8.08-27.25-13.26-6.58,18.51-6.16,38.2-7.42,57.51-3.43-11.23-6.19-22.67-11-33.41C350.05,130.84,353.27,112.4,368.11,103.1Z"/><path class="cls-3" d="M102.12,191c11.09-12.24,28.51-6.58,41.53-1.19,11.23,5.25,23.54,2.55,35.05,0,1.92,13.29,1,27.46-7.91,38.24-18.3,10.67-40,6.12-59.3,1.36-3.08,18.37-8.22,36.59-18.68,52.2l-3.11-3.71a99,99,0,0,1-13.36-50.76C76.23,210.47,92.47,202.07,102.12,191Z"/><path class="cls-3" d="M440.14,231.18q122.48.52,245,0c.07,1.71.21,5.14.28,6.89-75.39-.31-150.82.38-226.21-.35C452.84,235.55,446.51,233.27,440.14,231.18Z"/><path class="cls-3" d="M393.93,237.72l.91.91c1.47,1.61,4.44,4.83,5.95,6.4-.73,1.47-2.24,4.34-3,5.77q2.94,11.54,5.81,23.09c-1.57,4.72-3.22,9.41-4.86,14.1-.73,2-2.13,5.91-2.87,7.87-1.08-1.08-3.29-3.25-4.41-4.34-1.85-5.32-3.74-10.57-5.56-15.85,2.73-10.46,5.46-21.06,5.11-32C391.76,242.2,393.23,239.22,393.93,237.72Z"/><path class="cls-3" d="M70.08,348.37c3.25-14,13.36-25.19,26-31.7,8.92,4.16,18.61,6.82,28.55,6,9.27,18.23,21.83,34.42,33,51.53-2.1-11.26-5.07-22.32-8.15-33.34,14,11.72,24,33.62,44.78,32.64,20.82.84,41.63.42,62.45.8-2.45,14.13-2.83,28.44-2.69,42.75,8.54,0,17,0,25.57,0h17.25c11.3,0,22.6.14,33.86-.59,1.26-1.64,3.78-5,5-6.68,39.67,0,79.34.07,119-.07v7c60.94.84,121.89,0,182.83.38h26.94c9.9,0,19.84-.1,29.74-.24,0,10.32,0,20.64.17,31H658.55c-16,0-32,0-48,0,0,71.58-.1,143.16.07,214.73q-15.69,0-31.38.1V559.92q.26-56,.07-112.12-133.66-.37-267.31,0c-.56,37.33-.1,74.69-.24,112-.14,34.32,0,68.64-.07,103q-55.52-2-111.07-1.5c-1.47-42.93-1-85.89-2.73-128.78-1.4-9-1-25-13.68-24.91-32.57-2.87-65.63.8-98-4.72-11.82-1.92-19-12.66-24.31-22.39-.59-10.6-.28-21.27-1.68-31.8,0-.38-.07-1.19-.1-1.57C61.75,414.11,61.68,380.52,70.08,348.37Zm96.38,74.94c1.75,8.08,3.39,16.2,5,24.31l-10.88,1.54c3.43,3.57,5.74,9.06,11.09,10,22.53,4.41,45.51,6.4,68,11.16,14.52,4.79,29.46,16.58,30,33.1,2.13,23.33,2.17,46.84,4.48,70.21,2,19.77-.63,40.3,5.63,59.44,2.24-61.68.28-123.53,1-185.28H189.83c0-8.15,0-16.34,0-24.49Z"/><path class="cls-3" d="M757.38,449.06c31.94,2.59,64.09-.45,96.07,2.17a174.61,174.61,0,0,1,1.64,29.63c-6.61,8.61-12.45,20-24.38,21.69-34.07,6.79-69.27.94-103.48,6-7.07,5.6-7,15.6-8.19,23.75-1.5,43-1.15,86-2.59,128.92-33.51,0-67,0-100.51,0,2.31-14.2,11.61-25.33,23.65-32.61,3.11-41.67,4.76-83.47,7.77-125.14.14-9.31,5.6-17.07,11.61-23.61A110.85,110.85,0,0,1,677.51,470c21.76-4.06,43.84-6.19,65.53-10.5C749.4,458.75,752.93,452.87,757.38,449.06Z"/><path class="cls-3" d="M37.19,485.44c7.59-3,14.94-6.54,22.35-10l0,.56c3.81,11.68-4.2,19.87-12.56,26.48Q42.25,493.91,37.19,485.44Z"/><path class="cls-3" d="M858.38,476c7.1,3.25,14.17,6.58,21.45,9.48q-4.83,8-9.48,16.23c-4.72-3.85-9.45-7.73-14.1-11.65.7-4.44,1.4-8.92,2.06-13.36Z"/><path class="cls-3" d="M334.31,560c18.65.14,37.29,0,56-.14.24,21-.52,42,.24,62.94,0,9.83,5.14,19.7,1.71,29.39-19.63,2.06-39.46.56-59.19.73.28-7.31.8-14.59,1.64-21.83C334,607.43,334.45,583.71,334.31,560Z"/><path class="cls-3" d="M402,559.92c17.56.14,35.09.21,52.65.07-.17,31-1,62.1,3.46,92.88-19.66-.07-39.43,1.36-59-.56-4.34-9.66,2-19.59,2.38-29.39C402.88,601.94,401.59,580.91,402,559.92Z"/><path class="cls-3" d="M71.83,647.56c2.38-4.51,5.63-8.43,8.68-12.45,3.36.28,10,.8,13.36,1,2.38,4.72,5.21,9.27,6.44,14.45.31,6.86-6.09,10.64-10.88,14.1H79C76.2,659.28,71.06,654.17,71.83,647.56Z"/><path class="cls-3" d="M116.54,636l16.44.52c2.17,4.58,4.83,9,5.84,14,.8,6.93-6,10.29-10.46,14.13H117.93c-2.66-4.58-6.93-8.61-7.49-14.06C111.74,645.46,114.33,640.81,116.54,636Z"/><path class="cls-3" d="M157.19,635c4.2.42,8.4.77,12.63,1,3.5,5.39,9.45,10.71,7.35,17.84-.56,5.25-6.58,7.42-9.87,10.85h-7.59c-4.72-3.53-10.81-7.38-10.85-14C149.7,644.65,154.18,640,157.19,635Z"/><path class="cls-3" d="M747.27,635.73c4.79.17,9.59.35,14.34.49,2.52,6.3,9.24,13,5,20-2,4.23-6.79,5.95-10.43,8.47h-7.8c-3.6-4.06-9.27-7.8-8.78-14C739.22,644.72,744.57,640.56,747.27,635.73Z"/><path class="cls-3" d="M784.1,636.43c5.42-.14,10.88-.31,16.34-.45,2.2,4.76,4.83,9.45,6.16,14.59.49,6.86-6.09,10.5-10.71,14.13H785.75c-2.69-4.58-7-8.57-7.56-14.06C779.17,645.53,781.9,641.05,784.1,636.43Z"/><path class="cls-3" d="M823.11,636.19c3.36-.24,10-.8,13.4-1,3.57,5.6,10.78,10.88,8.36,18.37-.77,5.77-6.82,8.08-10.85,11.19h-9.69c-2.76-4.48-6.47-8.64-7.63-13.85C817.79,645.56,820.73,640.95,823.11,636.19Z"/><path class="cls-4" d="M647,100.33c8.78,0,17.53-.1,26.34-.28q-5.61,8.82-11,17.74c-5.11-.94-10.43-2.45-15.5-.45-14,4.44-27.88,9.27-41.7,14.27-5.7,1.85-8.85,7.28-12.42,11.72-15,20.43-30.19,40.69-45.3,61-21.13-13.26-42.65-25.85-63.71-39.25-14.13,17.56-28.34,35-42.3,52.72-2.1-5.49-4.09-11-6.09-16.51,15.85-14.69,31.21-29.91,46.42-45.27,21.66,10.81,43.35,21.55,64.9,32.5,17.32-20.15,32.89-41.95,51.39-61,17.56-7.77,36.35-12.56,54.44-19.07C651.16,106.42,648.44,102.36,647,100.33Z"/><path class="cls-4" d="M772.87,190.1c12.52-4.72,29-11.33,40.2-.31,8.5,8.89,19.73,16,25.19,27.29,6.4,21.69-3.74,43.56-11.33,63.53l-4.2-2c-10.11-14.59-13.92-32.22-17.21-49.36-19.17,4.86-39.6,7.8-58.56.42-2.38-3.6-4.86-7.17-7.21-10.78a110.75,110.75,0,0,1-.8-28.86C750.06,192.55,762,194.93,772.87,190.1Z"/><path class="cls-5" d="M362.79,180.41c1.26-19.31.84-39,7.42-57.51,8.57,5.18,16.79,12.59,27.25,13.26,8.61-.31,16.55-4.09,24.56-6.89,3.32,16.76,2.83,33.9,4.16,50.87,3.74-11.12,6.44-22.56,10.32-33.65,1,9.55.24,19.14-.94,28.62-8.57,12-16.44,24.56-25.5,36.24.21,4,.45,8,.7,12.07q-8,7.61-15.92,15.22l-.91-.91a190.49,190.49,0,0,0-14-13c.17-4.62.35-9.2.52-13.82-4.44-5-8.92-9.9-12.94-15.22-4.23-7.07-8.64-14.1-13.29-20.92q-1.78-13.8-2.38-27.71C356.6,157.74,359.36,169.18,362.79,180.41Z"/><path class="cls-5" d="M111.5,229.36c19.35,4.76,41,9.31,59.3-1.36-.38,21.1,2.27,44.64-10.81,62.73-6.09,9.66-17.46,13-27.53,16.62-.8,4.58-1.54,9.13-2.45,13.68-1.36.42-4.06,1.26-5.39,1.64-9.94.84-19.63-1.82-28.55-6,1.5-11.61,6.93-26-3.25-35.12C103.28,266,108.42,247.72,111.5,229.36Z"/><path class="cls-5" d="M758.36,292.89C744.54,275,745.45,251,747,229.71c19,7.38,39.39,4.44,58.56-.42,3.29,17.14,7.1,34.77,17.21,49.36-6.16,12.07-4.44,25.71-2.27,38.52a100,100,0,0,1-29.25,6.4l-4.09-3c-1-4.41-1.78-8.85-2.59-13.29C775.18,303.87,764.55,301.35,758.36,292.89Z"/><path class="cls-5" d="M591,249.12a139,139,0,0,1,30.51-.07c.8,7.42,1.75,14.8,2.48,22.18q-7.56,5.67-15.15,11.16c-6.44-9.52-13.08-18.89-18.65-28.9Z"/><path class="cls-5" d="M256.65,374.3c7.38,1.85,17.32,3.15,20.19,11.47,3.11,10.11,2.52,20.82,2.69,31.24-8.54,0-17,0-25.57,0C253.81,402.74,254.2,388.43,256.65,374.3Z"/><path class="cls-5" d="M641.09,383.85c4.69-5.56,12-7.94,18.19-11.54,1.08,5.77,2.41,11.51,3.5,17.32A265.9,265.9,0,0,1,664.42,417H637.49C637.87,406,636.51,394.2,641.09,383.85Z"/><path class="cls-6" d="M368,225.26l7.73-1.26c1.33,17.53,3.88,35.12,10.18,51.67,1.82,5.28,3.71,10.53,5.56,15.85-12.42-11.75-22.77-25.4-32.82-39.18L366,244c-1.29-5.77-2.59-11.58-3.85-17.35C363.59,226.35,366.53,225.61,368,225.26Z"/><path class="cls-6" d="M414.22,223c3.92,1.26,7.84,2.55,11.75,3.81-.87,6.05-1.75,12.07-2.59,18.12,2.06,2.59,4.13,5.18,6.23,7.77-8.15,13.47-17.84,26.17-30.86,35.3,1.64-4.69,3.29-9.38,4.86-14.1C409.46,257.48,412.12,240.2,414.22,223Z"/><path class="cls-6" d="M308.91,264.94c.49-10.67,7.42-19.21,16.3-24.45,5.53,52.65,5,105.76,7.77,158.62-1.82,5.53-4.16,11.44-2.34,17.32-11.26.73-22.56.59-33.86.59C300.48,366.32,302.93,315.45,308.91,264.94Z"/><path class="cls-6" d="M458.47,311.18c1.47-23.3.77-46.81,4.44-70,2.73,3,5.53,6,8,9.2,5,6.72,9.59,13.68,14.13,20.64,7.14,8.75,11.44,23.12,23.89,24.91,17.84-5.91,33.51-16.65,50.17-25.15,10.53-5.39,21-10.92,31-17.32,5.56,10,12.21,19.38,18.65,28.9-28,21.13-55.45,43.94-88,57.93-9.69,3.85-21.66,7.7-31.21,1.36C477.68,333.26,468.51,321.68,458.47,311.18Z"/><path class="cls-7" d="M325.22,240.48a216.08,216.08,0,0,1,36.94-13.78c1.26,5.77,2.55,11.58,3.85,17.35l-7.35,8.29c10,13.78,20.4,27.43,32.82,39.18,1.12,1.08,3.32,3.25,4.41,4.34.73-2,2.13-5.91,2.87-7.87,13-9.13,22.7-21.83,30.86-35.3-2.1-2.59-4.16-5.18-6.23-7.77.84-6.05,1.71-12.07,2.59-18.12,4.69,1.5,9.41,3,14.17,4.37,6.37,2.1,12.7,4.37,19,6.58.94.87,2.8,2.62,3.74,3.46-3.67,23.16-3,46.67-4.44,70-1.61,32.82-2,65.7-3.81,98.48-39.64.14-79.31,0-119,.07-.66-2.66-2-8-2.69-10.64C330.18,346.24,330.74,293.13,325.22,240.48Z"/><path class="cls-8" d="M312,447.76q133.66-.26,267.31,0,.26,56-.07,112.12c-41.53.1-83.05,0-124.58.07-17.56.14-35.09.07-52.65-.07-2.94,0-8.78,0-11.68,0-18.68.14-37.33.28-56,.14q-11.33-.1-22.6-.24C311.85,522.45,311.4,485.09,312,447.76Z"/><path class="cls-8" d="M117,534.21c5.21,0,10.39,0,15.6,0q.42,39,0,78,17.42,0,34.81,0c.94,7.91,1.64,15.88,2.48,23.82-4.23-.28-8.43-.63-12.63-1-3.67-11-15.53-8.78-24.77-9.66.14,2.83.42,8.43.56,11.23L116.54,636c.14-2.52.35-7.56.45-10.08q-10.55.05-21.1.17c-.7,3.36-1.36,6.68-2,10-3.32-.24-10-.77-13.36-1,.38-7.56.77-15.15,1.22-22.7,11.75-.14,23.47-.17,35.19-.17C116.78,586.2,116.74,560.2,117,534.21Z"/><path class="cls-8" d="M784.49,534.21q7.77-.05,15.53,0c.24,26,.17,52,.07,78,11.72,0,23.44,0,35.19.24.45,7.56.84,15.11,1.22,22.67-3.36.24-10,.8-13.4,1-.7-3.36-1.36-6.75-2.06-10.11C814,626,807,626,800,626c.14,2.48.38,7.49.49,10-5.46.14-10.92.31-16.34.45.1-2.66.35-8,.45-10.64-7.31.24-14.62.49-21.94.84-.24,2.41-.73,7.21-1,9.59-4.76-.14-9.55-.31-14.34-.49.77-7.87,1.43-15.71,2.31-23.54,11.61,0,23.26,0,34.88,0C784.21,586.23,784.17,560.2,784.49,534.21Z"/></g></g></svg>