<svg xmlns="http://www.w3.org/2000/svg" viewBox="0 0 57 57"><defs><style>.cls-1{fill:#1b3e68;}.cls-2{fill:#fff;}</style></defs><title>Asset 19</title><g id="Layer_2" data-name="Layer 2"><g id="Pagina_Inicial_Movil" data-name="Pagina Inicial Movil"><circle class="cls-1" cx="28.5" cy="28.5" r="28.5"/><path class="cls-2" d="M24.1,29.8V25.4a.7.7,0,0,1,.2-.5l.5-.2h.3V23.2a3.4,3.4,0,0,1,6.9,0v1.5h.3l.5.2a.7.7,0,0,1,.2.5v4.4a.7.7,0,0,1-.2.5l-.5.2H24.9l-.5-.2A.6.6,0,0,1,24.1,29.8Zm2.5-5.2h3.9V23.1a1.9,1.9,0,0,0-.5-1.4,1.8,1.8,0,0,0-1.4-.5,1.9,1.9,0,0,0-1.4.5,1.8,1.8,0,0,0-.5,1.4v1.5h-.1Z"/><path class="cls-2" d="M12.1,36.6V18a2.7,2.7,0,0,1,.8-1.9,2.6,2.6,0,0,1,1.9-.8H42.1a2.7,2.7,0,0,1,1.9.8,2.6,2.6,0,0,1,.8,1.9V36.6a2.7,2.7,0,0,1-.8,1.9,2.6,2.6,0,0,1-1.9.8H32.9a3.6,3.6,0,0,0,.3,1.3l.5,1.2a2.1,2.1,0,0,1,.3.7,1.1,1.1,0,0,1-1.1,1.1H24.1A1.1,1.1,0,0,1,23,42.5a2,2,0,0,1,.3-.7l.5-1.2a3.7,3.7,0,0,0,.3-1.4H14.8a2.7,2.7,0,0,1-1.9-.8A2.6,2.6,0,0,1,12.1,36.6Zm2.2-4.4a.5.5,0,0,0,.2.4l.4.2H42.1l.4-.2a.5.5,0,0,0,.2-.4V18.1a.5.5,0,0,0-.2-.4l-.4-.2H14.8l-.4.2a.5.5,0,0,0-.2.4V32.2Z"/></g></g></svg>