<svg xmlns="http://www.w3.org/2000/svg" viewBox="0 0 54.9 54.9"><defs><style>.cls-1{fill:#1b3e68;}.cls-2{fill:#fff;}</style></defs><title>Asset 18</title><g id="Layer_2" data-name="Layer 2"><g id="Pagina_Inicial_Movil" data-name="Pagina Inicial Movil"><circle class="cls-1" cx="27.4" cy="27.4" r="27.4"/><path class="cls-2" d="M12.4,28.9V26a.4.4,0,0,1,0-.4l.2-.2,2.5-.4.5-1.2L14.2,22a.6.6,0,0,1-.1-.4.4.4,0,0,1,.1-.4l1.3-1.4a3.2,3.2,0,0,1,1.2-1h.4L19,20.4l1.2-.5q.1-1.3.4-2.6a.8.8,0,0,1,.4-.6h3l.4.4a.8.8,0,0,1,.2.4l.4,2.5,1.2.5L28,19h.6c1.5,1.4,2.3,2.2,2.3,2.6a.6.6,0,0,1-.1.4l-.7.9-.7,1,.5,1.3,2.4.4.4.2.2.4v2.9l-.2.4-.4.2-2.5.4L29.3,31l1.4,1.9a.5.5,0,0,1,.1.4.4.4,0,0,1-.1.4l-1.3,1.4a3.2,3.2,0,0,1-1.2,1h-.4l-1.9-1.4-1.2.5c-.1,1.1-.3,2.1-.4,2.6a.7.7,0,0,1-.4.5H21l-.4-.4-.2-.4L20.1,35l-1.2-.5L17,35.9h-.6c-1.5-1.4-2.3-2.2-2.3-2.6a.6.6,0,0,1,.1-.4l.6-.8.7-1a8,8,0,0,1-.5-1.3l-2.4-.4-.2-.2A.4.4,0,0,1,12.4,28.9Zm7.1-4.3a3.7,3.7,0,1,1,.1,0ZM32.6,21c-1.6-.2-2.6-.4-2.6-.5V18.3c0-.2,1-.4,2.6-.5l.6-.8a7.4,7.4,0,0,1-.8-2.2h.1l.5-.4,1-.5.4-.3a2.3,2.3,0,0,1,.7.7l.8,1.1h1l1.5-1.8h.1l1.9,1.1h.1a8.5,8.5,0,0,1-.8,2.2l.4.8c1.6.2,2.2.4,2.2.5v2.2c0,.2-.6.4-2.2.5l-.4.8a9.3,9.3,0,0,1,.9,2.2h-.1L38.5,25a2.3,2.3,0,0,1-.7-.7L37,23.3h-1l-.8,1.1a2.3,2.3,0,0,1-.7.7l-1.9-1.1h-.1a6.6,6.6,0,0,1,.7-2.2l-.5-.8h-.1Zm0,16.2c-1.6-.2-2.6-.4-2.6-.5V34.5c0-.2,1-.4,2.6-.5l.6-.8a7.4,7.4,0,0,1-.8-2.2h.1l.5-.4,1-.5.4-.3a2.3,2.3,0,0,1,.7.7l.8,1.1h1l1.5-1.8h.1l1.9,1.1h.1a8.5,8.5,0,0,1-.8,2.2l.4.8c1.6.2,2.2.4,2.2.5v2.2c0,.2-.6.4-2.2.5l-.4.8a9.3,9.3,0,0,1,.9,2.2h-.1l-1.9,1.1a2.3,2.3,0,0,1-.7-.7L37,39.5h-1l-.8,1.1a2.3,2.3,0,0,1-.7.7l-1.9-1.1h-.1a6.6,6.6,0,0,1,.7-2.2l-.5-.8h-.1Zm1.9-17.8a2,2,0,1,0,.6-1.4,1.9,1.9,0,0,0-.6,1.3Zm0,16.2a2,2,0,1,0,.6-1.4,1.9,1.9,0,0,0-.6,1.3Z"/></g></g></svg>