<svg xmlns="http://www.w3.org/2000/svg" viewBox="0 0 56.9 56.9"><defs><style>.cls-1{fill:#1b3e68;}.cls-2{fill:#fff;}</style></defs><title>Asset 20</title><g id="Layer_2" data-name="Layer 2"><g id="Pagina_Inicial_Movil" data-name="Pagina Inicial Movil"><circle class="cls-1" cx="28.4" cy="28.4" r="28.4"/><path class="cls-2" d="M24,33.1V28.7a.7.7,0,0,1,.2-.5l.5-.2H25V26.5a3.4,3.4,0,0,1,6.9,0V28h.3l.5.2a.7.7,0,0,1,.2.5v4.4a.7.7,0,0,1-.2.5l-.5.2H24.7l-.5-.2A.6.6,0,0,1,24,33.1ZM26.4,28h3.9V26.5a1.9,1.9,0,0,0-.5-1.4,1.8,1.8,0,0,0-1.4-.5,1.9,1.9,0,0,0-1.4.5,1.8,1.8,0,0,0-.5,1.4V28h-.1Z"/><path class="cls-2" d="M11,35.8a18.5,18.5,0,0,1-1.5-7.4A19.1,19.1,0,0,1,11,20.9,20.1,20.1,0,0,1,15,14.8a18.6,18.6,0,0,1,6.1-4.1,18.5,18.5,0,0,1,7.4-1.5,19.1,19.1,0,0,1,7.4,1.5A20.1,20.1,0,0,1,42,14.8a19.4,19.4,0,0,1,5.6,13.5,19.1,19.1,0,0,1-1.5,7.4A20.1,20.1,0,0,1,42,41.8a19.4,19.4,0,0,1-13.5,5.5,19.1,19.1,0,0,1-7.4-1.5A20.1,20.1,0,0,1,15,41.7,19.4,19.4,0,0,1,11,35.8Zm3.2-15.1a16.4,16.4,0,0,0,0,15.4L18.2,32a11.1,11.1,0,0,1-.6-3.5,11,11,0,0,1,.6-3.5l-4.1-4.2h0Zm8.7,1.9a8.1,8.1,0,1,0,5.8-2.4,7.9,7.9,0,0,0-5.8,2.4Zm-1.9-8.7L25,17.9a11.1,11.1,0,0,1,3.5-.6,11,11,0,0,1,3.5.6l4.2-4.1a16.4,16.4,0,0,0-15.4.1Zm0,28.9a16.4,16.4,0,0,0,15.4,0l-4.1-4.1a11.1,11.1,0,0,1-3.5.6,11,11,0,0,1-3.5-.6Zm18-10.9L43,35.9a16.4,16.4,0,0,0,0-15.4l-4.1,4.1a11,11,0,0,1-.1,7.2Z"/></g></g></svg>